<svg xmlns="http://www.w3.org/2000/svg" shape-rendering="geometricPrecision" text-rendering="geometricPrecision" image-rendering="optimizeQuality" fill-rule="evenodd" clip-rule="evenodd" viewBox="0 0 512 512"><path fill-rule="nonzero" d="M300.02 161.657l.047-.187c3.542-14.981 23.176-18.148 31.458-5.532a17.27 17.27 0 012.463 13.038c-2.328 10.088-4.271 20.55-6.386 30.72h12.177c22.801 0 22.804 34.849 0 34.849h-19.383l-8.664 43.645h30.453c22.935 0 22.926 34.846 0 34.846h-37.597l-7.847 37.682c-5.447 21.855-38.479 14.339-33.876-7.694 2.271-9.85 4.177-20.06 6.245-29.988h-45.112c-2.556 12.304-4.897 25.01-7.741 37.203-5.282 22.331-38.129 14.224-33.971-7.243l6.239-29.991-16.242.003c-22.9.135-22.956-34.818 0-34.818h23.404l8.614-43.645h-34.49c-22.521 0-23.232-34.849 0-34.849h41.693l7.731-37.144c.051-.403.138-.797.26-1.176 5.329-21.289 38.485-14.721 33.877 7.672l-6.39 30.648h45.113c2.635-12.65 5.447-25.37 7.925-38.039zM256 0c70.688 0 134.689 28.658 181.016 74.984C483.342 121.311 512 185.312 512 256c0 70.688-28.658 134.689-74.984 181.016C390.689 483.342 326.688 512 256 512c-70.688 0-134.689-28.658-181.016-74.984C28.658 390.689 0 326.688 0 256c0-70.688 28.658-134.689 74.984-181.016C121.311 28.658 185.312 0 256 0zm159.946 96.054C375.017 55.125 318.465 29.806 256 29.806S136.983 55.125 96.054 96.054 29.806 193.535 29.806 256s25.319 119.017 66.248 159.946S193.535 482.194 256 482.194s119.017-25.319 159.946-66.248S482.194 318.465 482.194 256s-25.319-119.017-66.248-159.946zM276.256 278.19l8.661-43.645h-45.115l-8.664 43.645h45.118z"/></svg>